<svg xmlns="http://www.w3.org/2000/svg" style="display:none">
  <!-- Navigation Icons -->
  <symbol id="icon-home" viewBox="0 0 24 24">
    <path d="M3 12l2-2m0 0l7-7 7 7M5 10v10a1 1 0 001 1h3m10-11l2 2m-2-2v10a1 1 0 01-1 1h-3m-6 0a1 1 0 001-1v-4a1 1 0 011-1h2a1 1 0 011 1v4a1 1 0 001 1m-6 0h6" stroke="currentColor" fill="none" stroke-linecap="round" stroke-linejoin="round" stroke-width="2"/>
  </symbol>
  
  <symbol id="icon-profile" viewBox="0 0 24 24">
    <path d="M16 7a4 4 0 11-8 0 4 4 0 018 0zM12 14a7 7 0 00-7 7h14a7 7 0 00-7-7z" stroke="currentColor" fill="none" stroke-linecap="round" stroke-linejoin="round" stroke-width="2"/>
  </symbol>
  
  <symbol id="icon-query" viewBox="0 0 24 24">
    <path d="M8 10h.01M12 10h.01M16 10h.01M9 16H5a2 2 0 01-2-2V6a2 2 0 012-2h14a2 2 0 012 2v8a2 2 0 01-2 2h-4l-4 4z" stroke="currentColor" fill="none" stroke-linecap="round" stroke-linejoin="round" stroke-width="2"/>
  </symbol>
  
  <symbol id="icon-solution" viewBox="0 0 24 24">
    <path d="M9 12l2 2 4-4m6 2a9 9 0 11-18 0 9 9 0 0118 0z" stroke="currentColor" fill="none" stroke-linecap="round" stroke-linejoin="round" stroke-width="2"/>
  </symbol>
  
  <symbol id="icon-feedback" viewBox="0 0 24 24">
    <path d="M11.049 2.927c.3-.921 1.603-.921 1.902 0l1.519 4.674a1 1 0 00.95.69h4.915c.969 0 1.371 1.24.588 1.81l-3.976 2.888a1 1 0 00-.363 1.118l1.518 4.674c.3.922-.755 1.688-1.538 1.118l-3.976-2.888a1 1 0 00-1.176 0l-3.976 2.888c-.783.57-1.838-.197-1.538-1.118l1.518-4.674a1 1 0 00-.363-1.118l-3.976-2.888c-.784-.57-.38-1.81.588-1.81h4.914a1 1 0 00.951-.69l1.519-4.674z" stroke="currentColor" fill="none" stroke-linecap="round" stroke-linejoin="round" stroke-width="2"/>
  </symbol>
  
  <!-- UI Icons -->
  <symbol id="icon-plus" viewBox="0 0 24 24">
    <path d="M12 5v14m-7-7h14" stroke="currentColor" fill="none" stroke-linecap="round" stroke-linejoin="round" stroke-width="2"/>
  </symbol>
  
  <symbol id="icon-minus" viewBox="0 0 24 24">
    <path d="M5 12h14" stroke="currentColor" fill="none" stroke-linecap="round" stroke-linejoin="round" stroke-width="2"/>
  </symbol>
  
  <symbol id="icon-edit" viewBox="0 0 24 24">
    <path d="M11 4H4a2 2 0 00-2 2v14a2 2 0 002 2h14a2 2 0 002-2v-7M18.5 2.5a2.121 2.121 0 013 3L12 15l-4 1 1-4 9.5-9.5z" stroke="currentColor" fill="none" stroke-linecap="round" stroke-linejoin="round" stroke-width="2"/>
  </symbol>
  
  <symbol id="icon-send" viewBox="0 0 24 24">
    <path d="M22 2L11 13M22 2l-7 20-4-9-9-4 20-7z" stroke="currentColor" fill="none" stroke-linecap="round" stroke-linejoin="round" stroke-width="2"/>
  </symbol>
  
  <symbol id="icon-search" viewBox="0 0 24 24">
    <circle cx="11" cy="11" r="8" stroke="currentColor" fill="none" stroke-width="2"/>
    <path d="M21 21l-4.35-4.35" stroke="currentColor" fill="none" stroke-linecap="round" stroke-linejoin="round" stroke-width="2"/>
  </symbol>
  
  <symbol id="icon-time" viewBox="0 0 24 24">
    <circle cx="12" cy="12" r="10" stroke="currentColor" fill="none" stroke-width="2"/>
    <polyline points="12,6 12,12 16,14" stroke="currentColor" fill="none" stroke-linecap="round" stroke-linejoin="round" stroke-width="2"/>
  </symbol>
  
  <symbol id="icon-email" viewBox="0 0 24 24">
    <path d="M4 4h16c1.1 0 2 .9 2 2v12c0 1.1-.9 2-2 2H4c-1.1 0-2-.9-2-2V6c0-1.1.9-2 2-2z" stroke="currentColor" fill="none" stroke-width="2"/>
    <polyline points="22,6 12,13 2,6" stroke="currentColor" fill="none" stroke-linecap="round" stroke-linejoin="round" stroke-width="2"/>
  </symbol>
  
  <symbol id="icon-calendar" viewBox="0 0 24 24">
    <rect x="3" y="4" width="18" height="18" rx="2" ry="2" stroke="currentColor" fill="none" stroke-width="2"/>
    <line x1="16" y1="2" x2="16" y2="6" stroke="currentColor" stroke-linecap="round" stroke-linejoin="round" stroke-width="2"/>
    <line x1="8" y1="2" x2="8" y2="6" stroke="currentColor" stroke-linecap="round" stroke-linejoin="round" stroke-width="2"/>
    <line x1="3" y1="10" x2="21" y2="10" stroke="currentColor" stroke-linecap="round" stroke-linejoin="round" stroke-width="2"/>
  </symbol>
  
  <symbol id="icon-star" viewBox="0 0 24 24">
    <polygon points="12,2 15.09,8.26 22,9.27 17,14.14 18.18,21.02 12,17.77 5.82,21.02 7,14.14 2,9.27 8.91,8.26" stroke="currentColor" fill="currentColor" stroke-width="2"/>
  </symbol>
  
  <symbol id="icon-heart" viewBox="0 0 24 24">
    <path d="M20.84 4.61a5.5 5.5 0 0 0-7.78 0L12 5.67l-1.06-1.06a5.5 5.5 0 0 0-7.78 7.78l1.06 1.06L12 21.23l7.78-7.78 1.06-1.06a5.5 5.5 0 0 0 0-7.78z" stroke="currentColor" fill="none" stroke-width="2"/>
  </symbol>
  
  <symbol id="icon-info" viewBox="0 0 24 24">
    <circle cx="12" cy="12" r="10" stroke="currentColor" fill="none" stroke-width="2"/>
    <line x1="12" y1="16" x2="12" y2="12" stroke="currentColor" stroke-linecap="round" stroke-linejoin="round" stroke-width="2"/>
    <line x1="12" y1="8" x2="12.01" y2="8" stroke="currentColor" stroke-linecap="round" stroke-linejoin="round" stroke-width="2"/>
  </symbol>
  
  <!-- Alert Icons -->
  <symbol id="icon-success" viewBox="0 0 24 24">
    <path d="M9 12l2 2 4-4m6 2a9 9 0 11-18 0 9 9 0 0118 0z" stroke="currentColor" fill="none" stroke-linecap="round" stroke-linejoin="round" stroke-width="2"/>
  </symbol>
  
  <symbol id="icon-error" viewBox="0 0 24 24">
    <circle cx="12" cy="12" r="10" stroke="currentColor" fill="none" stroke-width="2"/>
    <line x1="15" y1="9" x2="9" y2="15" stroke="currentColor" stroke-linecap="round" stroke-linejoin="round" stroke-width="2"/>
    <line x1="9" y1="9" x2="15" y2="15" stroke="currentColor" stroke-linecap="round" stroke-linejoin="round" stroke-width="2"/>
  </symbol>
  
  <!-- Loading Animation -->
  <symbol id="icon-loading" viewBox="0 0 24 24">
    <circle cx="12" cy="12" r="10" stroke="currentColor" stroke-width="4" fill="none" stroke-dasharray="31.4 31.4">
      <animateTransform attributeName="transform" attributeType="XML" type="rotate" from="0 12 12" to="360 12 12" dur="1s" repeatCount="indefinite"/>
    </circle>
  </symbol>
  
  <!-- Additional missing icons -->
  <symbol id="icon-user" viewBox="0 0 24 24">
    <path d="M20 21v-2a4 4 0 0 0-4-4H8a4 4 0 0 0-4 4v2" stroke="currentColor" fill="none" stroke-linecap="round" stroke-linejoin="round" stroke-width="2"/>
    <circle cx="12" cy="7" r="4" stroke="currentColor" fill="none" stroke-width="2"/>
  </symbol>
  
  <symbol id="icon-user-plus" viewBox="0 0 24 24">
    <path d="M16 21v-2a4 4 0 0 0-4-4H5a4 4 0 0 0-4 4v2" stroke="currentColor" fill="none" stroke-linecap="round" stroke-linejoin="round" stroke-width="2"/>
    <circle cx="8.5" cy="7" r="4" stroke="currentColor" fill="none" stroke-width="2"/>
    <line x1="20" y1="8" x2="20" y2="14" stroke="currentColor" stroke-linecap="round" stroke-linejoin="round" stroke-width="2"/>
    <line x1="23" y1="11" x2="17" y2="11" stroke="currentColor" stroke-linecap="round" stroke-linejoin="round" stroke-width="2"/>
  </symbol>
  
  <symbol id="icon-arrow-left" viewBox="0 0 24 24">
    <line x1="19" y1="12" x2="5" y2="12" stroke="currentColor" stroke-linecap="round" stroke-linejoin="round" stroke-width="2"/>
    <polyline points="12,19 5,12 12,5" stroke="currentColor" fill="none" stroke-linecap="round" stroke-linejoin="round" stroke-width="2"/>
  </symbol>
  
  <symbol id="icon-arrow-right" viewBox="0 0 24 24">
    <line x1="5" y1="12" x2="19" y2="12" stroke="currentColor" stroke-linecap="round" stroke-linejoin="round" stroke-width="2"/>
    <polyline points="12,5 19,12 12,19" stroke="currentColor" fill="none" stroke-linecap="round" stroke-linejoin="round" stroke-width="2"/>
  </symbol>
  
  <symbol id="icon-tips" viewBox="0 0 24 24">
    <path d="M9 12l2 2 4-4m6 2a9 9 0 11-18 0 9 9 0 0118 0z" stroke="currentColor" fill="none" stroke-linecap="round" stroke-linejoin="round" stroke-width="2"/>
  </symbol>
  
  <symbol id="icon-share" viewBox="0 0 24 24">
    <circle cx="18" cy="5" r="3" stroke="currentColor" fill="none" stroke-width="2"/>
    <circle cx="6" cy="12" r="3" stroke="currentColor" fill="none" stroke-width="2"/>
    <circle cx="18" cy="19" r="3" stroke="currentColor" fill="none" stroke-width="2"/>
    <line x1="8.59" y1="13.51" x2="15.42" y2="17.49" stroke="currentColor" stroke-linecap="round" stroke-linejoin="round" stroke-width="2"/>
    <line x1="15.41" y1="6.51" x2="8.59" y2="10.49" stroke="currentColor" stroke-linecap="round" stroke-linejoin="round" stroke-width="2"/>
  </symbol>
  
  <symbol id="icon-bookmark" viewBox="0 0 24 24">
    <path d="M19 21l-7-5-7 5V5a2 2 0 0 1 2-2h10a2 2 0 0 1 2 2z" stroke="currentColor" fill="none" stroke-linecap="round" stroke-linejoin="round" stroke-width="2"/>
  </symbol>
  
  <symbol id="icon-lightbulb" viewBox="0 0 24 24">
    <path d="M9 21h6M12 3a6 6 0 0 0-6 6c0 4 3 6 3 9h6c0-3 3-5 3-9a6 6 0 0 0-6-6z" stroke="currentColor" fill="none" stroke-linecap="round" stroke-linejoin="round" stroke-width="2"/>
  </symbol>
  
  <symbol id="icon-target" viewBox="0 0 24 24">
    <circle cx="12" cy="12" r="10" stroke="currentColor" fill="none" stroke-width="2"/>
    <circle cx="12" cy="12" r="6" stroke="currentColor" fill="none" stroke-width="2"/>
    <circle cx="12" cy="12" r="2" stroke="currentColor" fill="none" stroke-width="2"/>
  </symbol>
  
  <symbol id="icon-warning" viewBox="0 0 24 24">
    <path d="M10.29 3.86L1.82 18a2 2 0 0 0 1.71 3h16.94a2 2 0 0 0 1.71-3L13.71 3.86a2 2 0 0 0-3.42 0z" stroke="currentColor" fill="none" stroke-linecap="round" stroke-linejoin="round" stroke-width="2"/>
    <line x1="12" y1="9" x2="12" y2="13" stroke="currentColor" stroke-linecap="round" stroke-linejoin="round" stroke-width="2"/>
    <line x1="12" y1="17" x2="12.01" y2="17" stroke="currentColor" stroke-linecap="round" stroke-linejoin="round" stroke-width="2"/>
  </symbol>
  
  <symbol id="icon-more" viewBox="0 0 24 24">
    <circle cx="12" cy="12" r="1" stroke="currentColor" fill="none" stroke-width="2"/>
    <circle cx="19" cy="12" r="1" stroke="currentColor" fill="none" stroke-width="2"/>
    <circle cx="5" cy="12" r="1" stroke="currentColor" fill="none" stroke-width="2"/>
  </symbol>
  
  <symbol id="icon-check" viewBox="0 0 24 24">
    <polyline points="20,6 9,17 4,12" stroke="currentColor" fill="none" stroke-linecap="round" stroke-linejoin="round" stroke-width="2"/>
  </symbol>
  
  <symbol id="icon-save" viewBox="0 0 24 24">
    <path d="M19 21H5a2 2 0 0 1-2-2V5a2 2 0 0 1 2-2h11l5 5v11a2 2 0 0 1-2 2z" stroke="currentColor" fill="none" stroke-linecap="round" stroke-linejoin="round" stroke-width="2"/>
    <polyline points="17,21 17,13 7,13 7,21" stroke="currentColor" fill="none" stroke-linecap="round" stroke-linejoin="round" stroke-width="2"/>
    <polyline points="7,3 7,8 15,8" stroke="currentColor" fill="none" stroke-linecap="round" stroke-linejoin="round" stroke-width="2"/>
  </symbol>
  
  <symbol id="icon-view" viewBox="0 0 24 24">
    <path d="M1 12s4-8 11-8 11 8 11 8-4 8-11 8-11-8-11-8z" stroke="currentColor" fill="none" stroke-linecap="round" stroke-linejoin="round" stroke-width="2"/>
    <circle cx="12" cy="12" r="3" stroke="currentColor" fill="none" stroke-width="2"/>
  </symbol>
  
  <symbol id="icon-publish" viewBox="0 0 24 24">
    <path d="M14 2H6a2 2 0 0 0-2 2v16a2 2 0 0 0 2 2h12a2 2 0 0 0 2-2V8z" stroke="currentColor" fill="none" stroke-linecap="round" stroke-linejoin="round" stroke-width="2"/>
    <polyline points="14,2 14,8 20,8" stroke="currentColor" fill="none" stroke-linecap="round" stroke-linejoin="round" stroke-width="2"/>
    <line x1="16" y1="13" x2="8" y2="13" stroke="currentColor" stroke-linecap="round" stroke-linejoin="round" stroke-width="2"/>
    <line x1="16" y1="17" x2="8" y2="17" stroke="currentColor" stroke-linecap="round" stroke-linejoin="round" stroke-width="2"/>
    <polyline points="10,9 9,9 8,9" stroke="currentColor" fill="none" stroke-linecap="round" stroke-linejoin="round" stroke-width="2"/>
  </symbol>
  
  <symbol id="icon-delete" viewBox="0 0 24 24">
    <polyline points="3,6 5,6 21,6" stroke="currentColor" fill="none" stroke-linecap="round" stroke-linejoin="round" stroke-width="2"/>
    <path d="M8 6V4a2 2 0 0 1 2-2h4a2 2 0 0 1 2 2v2m3 0v14a2 2 0 0 1-2 2H7a2 2 0 0 1-2-2V6h14zM10 11v6M14 11v6" stroke="currentColor" fill="none" stroke-linecap="round" stroke-linejoin="round" stroke-width="2"/>
  </symbol>

  <symbol id="icon-server" viewBox="0 0 24 24">
    <rect x="2" y="3" width="20" height="4" rx="1" stroke="currentColor" fill="none" stroke-width="2"/>
    <rect x="2" y="9" width="20" height="4" rx="1" stroke="currentColor" fill="none" stroke-width="2"/>
    <rect x="2" y="15" width="20" height="4" rx="1" stroke="currentColor" fill="none" stroke-width="2"/>
    <line x1="6" y1="5" x2="6" y2="5" stroke="currentColor" stroke-linecap="round" stroke-width="2"/>
    <line x1="6" y1="11" x2="6" y2="11" stroke="currentColor" stroke-linecap="round" stroke-width="2"/>
    <line x1="6" y1="17" x2="6" y2="17" stroke="currentColor" stroke-linecap="round" stroke-width="2"/>
  </symbol>

  <!-- Expertise Icons -->
  <symbol id="icon-weight" viewBox="0 0 24 24">
    <path d="M6.5 6.5h11l-1 11h-9l-1-11zM6 4V2h12v2M9 9v6M15 9v6" stroke="currentColor" fill="none" stroke-linecap="round" stroke-linejoin="round" stroke-width="2"/>
  </symbol>
  
  <symbol id="icon-diabetes" viewBox="0 0 24 24">
    <path d="M12 2L2 7v10c0 5.55 3.84 9.74 9 11 5.16-1.26 9-5.45 9-11V7l-10-5z" stroke="currentColor" fill="none" stroke-linecap="round" stroke-linejoin="round" stroke-width="2"/>
    <path d="M9 12l2 2 4-4" stroke="currentColor" fill="none" stroke-linecap="round" stroke-linejoin="round" stroke-width="2"/>
  </symbol>
  
  <symbol id="icon-pregnancy" viewBox="0 0 24 24">
    <circle cx="12" cy="8" r="4" stroke="currentColor" fill="none" stroke-width="2"/>
    <path d="M8 14c0 2 2 6 4 6s4-4 4-6" stroke="currentColor" fill="none" stroke-linecap="round" stroke-linejoin="round" stroke-width="2"/>
  </symbol>
  
  <symbol id="icon-senior" viewBox="0 0 24 24">
    <path d="M5.5 8.5L9 12l-3.5 3.5L2 12l3.5-3.5zM18.5 8.5L22 12l-3.5 3.5L15 12l3.5-3.5z" stroke="currentColor" fill="none" stroke-linecap="round" stroke-linejoin="round" stroke-width="2"/>
    <path d="M9 12h6" stroke="currentColor" stroke-linecap="round" stroke-linejoin="round" stroke-width="2"/>
  </symbol>
  
  <symbol id="icon-sports" viewBox="0 0 24 24">
    <circle cx="12" cy="12" r="10" stroke="currentColor" fill="none" stroke-width="2"/>
    <path d="M8.56 2.75c4.37 6.03 6.02 9.42 8.03 17.72m2.54-15.38c-3.72 4.35-8.94 5.66-16.88 4.85" stroke="currentColor" fill="none" stroke-linecap="round" stroke-linejoin="round" stroke-width="2"/>
  </symbol>
</svg>
